<svg width="34" height="34" viewBox="0 0 34 34" fill="none" xmlns="http://www.w3.org/2000/svg">
<path d="M11.6875 12.7495L11.6875 24.0828" stroke="#F5F5F5" stroke-width="1.5" stroke-linecap="round" stroke-linejoin="round"/>
<path d="M17 15.583L17 24.083" stroke="#F5F5F5" stroke-width="1.5" stroke-linecap="round" stroke-linejoin="round"/>
<path d="M22.3125 19.8335L22.3125 24.0831" stroke="#F5F5F5" stroke-width="1.5" stroke-linecap="round" stroke-linejoin="round"/>
<path d="M28.6875 15.5391V25.5938C28.6875 27.3024 27.3024 28.6875 25.5937 28.6875H8.40625C6.69762 28.6875 5.3125 27.3024 5.3125 25.5937V8.40625C5.3125 6.69762 6.69762 5.3125 8.40625 5.3125H18.4609" stroke="#F5F5F5" stroke-width="1.5" stroke-linecap="round" stroke-linejoin="round"/>
<path d="M26.0648 12.0406L24.8596 15.7136C24.7258 16.1213 24.1492 16.1213 24.0154 15.7136L22.8102 12.0406C22.678 11.6378 22.3622 11.322 21.9594 11.1898L18.2864 9.98459C17.8787 9.85083 17.8787 9.27417 18.2864 9.14041L21.9594 7.93519C22.3622 7.80304 22.678 7.48717 22.8102 7.08442L24.0154 3.41137C24.1492 3.00372 24.7258 3.00372 24.8596 3.41137L26.0648 7.08442C26.197 7.48717 26.5128 7.80304 26.9156 7.93519L30.5886 9.14041C30.9963 9.27417 30.9963 9.85083 30.5886 9.98459L26.9156 11.1898C26.5128 11.322 26.197 11.6378 26.0648 12.0406Z" fill="#FFBC0F"/>
</svg>
